<svg width="131" height="30" viewBox="0 0 128 30" fill="none" xmlns="http://www.w3.org/2000/svg">
<g clip-path="url(#clip0_2_59)" filter="url(#filter0_d_2_59)">
<path d="M124.799 25.9059C124.262 25.9111 123.75 26.1284 123.373 26.5105C122.997 26.8925 122.787 27.4081 122.789 27.9445C122.792 28.4809 123.007 28.9944 123.387 29.3728C123.767 29.7512 124.282 29.9636 124.818 29.9636C125.355 29.9636 125.869 29.7512 126.249 29.3728C126.63 28.9944 126.844 28.4809 126.847 27.9445C126.85 27.4081 126.64 26.8925 126.263 26.5105C125.887 26.1284 125.374 25.9111 124.838 25.9059H124.799ZM124.799 29.7314C124.447 29.7372 124.101 29.6386 123.805 29.448C123.51 29.2574 123.277 28.9834 123.137 28.6606C122.997 28.3378 122.956 27.9807 123.019 27.6345C123.081 27.2883 123.246 26.9686 123.49 26.7156C123.735 26.4627 124.049 26.288 124.393 26.2137C124.737 26.1393 125.095 26.1685 125.422 26.2978C125.75 26.427 126.031 26.6504 126.232 26.9396C126.432 27.2289 126.542 27.5711 126.548 27.9229V27.9527C126.558 28.4143 126.384 28.8608 126.065 29.1942C125.745 29.5275 125.307 29.7204 124.845 29.7304H124.799L124.799 29.7314ZM117.01 25.3516H112.602V18.4475C112.602 16.8011 112.572 14.6818 110.309 14.6818C108.013 14.6818 107.661 16.4755 107.661 18.3276V25.3512H103.253V11.1535H107.485V13.0937H107.544C107.968 12.3695 108.58 11.7738 109.315 11.3699C110.051 10.966 110.882 10.7692 111.72 10.8003C116.188 10.8003 117.012 13.7394 117.012 17.563L117.01 25.3516ZM98.2782 9.21272C97.7722 9.21282 97.2776 9.06286 96.8568 8.78181C96.436 8.50077 96.108 8.10126 95.9143 7.63381C95.7206 7.16636 95.6698 6.65196 95.7685 6.15566C95.8671 5.65936 96.1107 5.20345 96.4684 4.84559C96.8261 4.48773 97.282 4.24398 97.7782 4.14517C98.2745 4.04637 98.7889 4.09694 99.2564 4.2905C99.7239 4.48405 100.124 4.8119 100.405 5.23257C100.686 5.65325 100.836 6.14786 100.836 6.65387C100.836 6.98984 100.77 7.32254 100.642 7.63296C100.513 7.94338 100.325 8.22545 100.087 8.46306C99.8496 8.70067 99.5676 8.88918 99.2573 9.0178C98.9469 9.14643 98.6142 9.21266 98.2782 9.21272ZM100.483 25.3516H96.0693V11.1535H100.483V25.3516ZM119.208 0.00184329H93.854C93.2785 -0.00465092 92.724 0.21759 92.3123 0.619729C91.9006 1.02187 91.6654 1.57101 91.6584 2.14647V27.606C91.6651 28.1818 91.9002 28.7313 92.3119 29.1338C92.7236 29.5364 93.2782 29.7591 93.854 29.7529H119.208C119.785 29.7602 120.341 29.5381 120.755 29.1356C121.168 28.733 121.405 28.1829 121.413 27.606V2.14463C121.404 1.56803 121.168 1.01827 120.754 0.616137C120.341 0.214008 119.785 -0.00759841 119.208 6.35056e-06V0.00184329ZM79.659 14.5803C77.4547 14.5803 76.1321 16.0521 76.1321 18.1967C76.1321 20.3414 77.4542 21.8146 79.659 21.8146C81.8638 21.8146 83.1891 20.345 83.1891 18.1967C83.1891 16.0484 81.8661 14.5803 79.659 14.5803ZM87.2479 25.3434H83.1891V23.4605H83.129C82.6198 24.1454 81.9594 24.7034 81.1991 25.0912C80.4389 25.4789 79.5994 25.6859 78.746 25.6961C74.5101 25.6961 71.7197 22.6389 71.7197 18.3157C71.7197 14.3451 74.1891 10.6993 78.2482 10.6993C80.0728 10.6993 81.777 11.1985 82.7768 12.5821H82.8346V4.3981H87.2474L87.2479 25.3434ZM66.0592 16.5958C66.0676 16.2382 66.0034 15.8825 65.8703 15.5504C65.7373 15.2183 65.5382 14.9167 65.2851 14.6638C65.032 14.4109 64.7303 14.212 64.3981 14.0791C64.0659 13.9463 63.7102 13.8823 63.3525 13.891C62.5822 13.843 61.8239 14.0997 61.2411 14.6057C60.6583 15.1117 60.2977 15.8264 60.237 16.5958H66.0592ZM69.7937 22.8874C69.0611 23.7758 68.1401 24.4901 67.0974 24.9787C66.0547 25.4672 64.9164 25.7177 63.7649 25.7121C59.3562 25.7121 55.8265 22.7694 55.8265 18.2124C55.8265 13.6554 59.3558 10.714 63.7649 10.714C67.8856 10.714 70.4697 13.6531 70.4697 18.2124V19.5947H60.237C60.3644 20.3786 60.7709 21.0901 61.3814 21.598C61.992 22.106 62.7656 22.3762 63.5596 22.3588C64.1871 22.3549 64.8037 22.1941 65.3532 21.8911C65.9027 21.5881 66.3677 21.1524 66.7058 20.6238L69.7937 22.8874ZM25.9671 11.1498H30.2008V13.09H30.2609C30.6838 12.3656 31.2955 11.7695 32.0307 11.3656C32.7659 10.9617 33.5971 10.765 34.4354 10.7966C38.906 10.7966 39.729 13.738 39.729 17.5593V25.3452H35.3203V18.4424C35.3203 16.7947 35.29 14.6767 33.0241 14.6767C30.7325 14.6767 30.3789 16.4709 30.3789 18.3226V25.3434H25.9703L25.9671 11.1498ZM41.9645 4.39948H46.3732V16.9205L51.3697 11.142H56.7749L50.9885 17.715L56.6532 25.3521H51.112L46.432 18.3341H46.3741V25.3512H41.9654L41.9645 4.39948ZM19.1139 11.1484H23.5226V25.3461H19.1139V11.1484ZM21.3182 4.08996C21.824 4.09005 22.3184 4.24012 22.739 4.52119C23.1595 4.80227 23.4872 5.20172 23.6807 5.66905C23.8742 6.13638 23.9248 6.65059 23.826 7.14666C23.7273 7.64273 23.4837 8.09839 23.126 8.45601C22.7683 8.81363 22.3126 9.05717 21.8165 9.15581C21.3204 9.25445 20.8062 9.20378 20.3389 9.0102C19.8717 8.81661 19.4723 8.48881 19.1913 8.06825C18.9103 7.64768 18.7603 7.15324 18.7603 6.64744C18.7603 6.31154 18.8264 5.97894 18.955 5.66862C19.0836 5.35831 19.272 5.07635 19.5095 4.83886C19.747 4.60137 20.029 4.413 20.3394 4.2845C20.6497 4.156 20.9823 4.0899 21.3182 4.08996ZM4 4.40269H8.58914V21.1189H17.085V25.3539H4V4.40269ZM125.121 28.0634C125.196 28.0642 125.271 28.0494 125.34 28.02C125.41 27.9906 125.473 27.9473 125.525 27.8927C125.577 27.838 125.617 27.7732 125.643 27.7024C125.669 27.6315 125.681 27.556 125.676 27.4806C125.676 27.0673 125.427 26.8699 124.915 26.8699H124.089V29.0338H124.4V28.0905H124.782L124.79 28.102L125.383 29.0338H125.716L125.078 28.0694L125.121 28.0634ZM124.761 27.8467H124.4V27.1151H124.857C125.093 27.1151 125.363 27.1537 125.363 27.4627C125.363 27.8182 125.09 27.8467 124.759 27.8467" fill="white" fill-opacity="0.5"/>
</g>
<defs>
<filter id="filter0_d_2_59" x="0" y="0" width="130.847" height="38" filterUnits="userSpaceOnUse" color-interpolation-filters="sRGB">
<feFlood flood-opacity="0" result="BackgroundImageFix"/>
<feColorMatrix in="SourceAlpha" type="matrix" values="0 0 0 0 0 0 0 0 0 0 0 0 0 0 0 0 0 0 127 0" result="hardAlpha"/>
<feOffset dy="4"/>
<feGaussianBlur stdDeviation="2"/>
<feComposite in2="hardAlpha" operator="out"/>
<feColorMatrix type="matrix" values="0 0 0 0 0 0 0 0 0 0 0 0 0 0 0 0 0 0 0.25 0"/>
<feBlend mode="normal" in2="BackgroundImageFix" result="effect1_dropShadow_2_59"/>
<feBlend mode="normal" in="SourceGraphic" in2="effect1_dropShadow_2_59" result="shape"/>
</filter>
<clipPath id="clip0_2_59">
<rect width="122.847" height="30" fill="white" transform="translate(4)"/>
</clipPath>
</defs>
</svg>
