<svg width="117" height="40" viewBox="0 0 117 40" fill="none" xmlns="http://www.w3.org/2000/svg">
<circle cx="20" cy="20" r="20" fill="url(#paint0_linear_2_66)"/>
<path d="M22.52 13.04V22.84C22.52 24.2 22.1267 25.26 21.34 26.02C20.5533 26.7667 19.5 27.14 18.18 27.14C16.8467 27.14 15.7667 26.7533 14.94 25.98C14.1267 25.2067 13.72 24.1267 13.72 22.74H16.52C16.5333 23.34 16.6733 23.8067 16.94 24.14C17.22 24.4733 17.62 24.64 18.14 24.64C18.6467 24.64 19.0333 24.48 19.3 24.16C19.5667 23.84 19.7 23.4 19.7 22.84V13.04H22.52Z" fill="white"/>
<path d="M54.08 13.1V23.12C54.08 24.36 53.7 25.34 52.94 26.06C52.1933 26.78 51.2067 27.14 49.98 27.14C48.7533 27.14 47.76 26.78 47 26.06C46.2533 25.34 45.88 24.36 45.88 23.12H48.18C48.1933 23.7333 48.3467 24.22 48.64 24.58C48.9467 24.94 49.3933 25.12 49.98 25.12C50.5667 25.12 51.0133 24.94 51.32 24.58C51.6267 24.2067 51.78 23.72 51.78 23.12V13.1H54.08ZM57.0291 21.44C57.0291 20.3333 57.2557 19.3533 57.7091 18.5C58.1757 17.6467 58.8024 16.9867 59.5891 16.52C60.3891 16.04 61.2691 15.8 62.2291 15.8C63.0957 15.8 63.8491 15.9733 64.4891 16.32C65.1424 16.6533 65.6624 17.0733 66.0491 17.58V15.98H68.3491V27H66.0491V25.36C65.6624 25.88 65.1357 26.3133 64.4691 26.66C63.8024 27.0067 63.0424 27.18 62.1891 27.18C61.2424 27.18 60.3757 26.94 59.5891 26.46C58.8024 25.9667 58.1757 25.2867 57.7091 24.42C57.2557 23.54 57.0291 22.5467 57.0291 21.44ZM66.0491 21.48C66.0491 20.72 65.8891 20.06 65.5691 19.5C65.2624 18.94 64.8557 18.5133 64.3491 18.22C63.8424 17.9267 63.2957 17.78 62.7091 17.78C62.1224 17.78 61.5757 17.9267 61.0691 18.22C60.5624 18.5 60.1491 18.92 59.8291 19.48C59.5224 20.0267 59.3691 20.68 59.3691 21.44C59.3691 22.2 59.5224 22.8667 59.8291 23.44C60.1491 24.0133 60.5624 24.4533 61.0691 24.76C61.5891 25.0533 62.1357 25.2 62.7091 25.2C63.2957 25.2 63.8424 25.0533 64.3491 24.76C64.8557 24.4667 65.2624 24.04 65.5691 23.48C65.8891 22.9067 66.0491 22.24 66.0491 21.48ZM76.9038 15.8C77.7704 15.8 78.5438 15.98 79.2238 16.34C79.9171 16.7 80.4571 17.2333 80.8438 17.94C81.2304 18.6467 81.4238 19.5 81.4238 20.5V27H79.1638V20.84C79.1638 19.8533 78.9171 19.1 78.4238 18.58C77.9304 18.0467 77.2571 17.78 76.4038 17.78C75.5504 17.78 74.8704 18.0467 74.3638 18.58C73.8704 19.1 73.6238 19.8533 73.6238 20.84V27H71.3438V15.98H73.6238V17.24C73.9971 16.7867 74.4704 16.4333 75.0438 16.18C75.6304 15.9267 76.2504 15.8 76.9038 15.8ZM83.572 21.44C83.572 20.3333 83.7987 19.3533 84.252 18.5C84.7187 17.6467 85.3454 16.9867 86.132 16.52C86.932 16.04 87.8187 15.8 88.792 15.8C89.512 15.8 90.2187 15.96 90.912 16.28C91.6187 16.5867 92.1787 17 92.592 17.52V12.2H94.892V27H92.592V25.34C92.2187 25.8733 91.6987 26.3133 91.032 26.66C90.3787 27.0067 89.6254 27.18 88.772 27.18C87.812 27.18 86.932 26.94 86.132 26.46C85.3454 25.9667 84.7187 25.2867 84.252 24.42C83.7987 23.54 83.572 22.5467 83.572 21.44ZM92.592 21.48C92.592 20.72 92.432 20.06 92.112 19.5C91.8054 18.94 91.3987 18.5133 90.892 18.22C90.3854 17.9267 89.8387 17.78 89.252 17.78C88.6654 17.78 88.1187 17.9267 87.612 18.22C87.1054 18.5 86.692 18.92 86.372 19.48C86.0654 20.0267 85.912 20.68 85.912 21.44C85.912 22.2 86.0654 22.8667 86.372 23.44C86.692 24.0133 87.1054 24.4533 87.612 24.76C88.132 25.0533 88.6787 25.2 89.252 25.2C89.8387 25.2 90.3854 25.0533 90.892 24.76C91.3987 24.4667 91.8054 24.04 92.112 23.48C92.432 22.9067 92.592 22.24 92.592 21.48ZM100.167 17.58C100.5 17.02 100.94 16.5867 101.487 16.28C102.047 15.96 102.707 15.8 103.467 15.8V18.16H102.887C101.993 18.16 101.313 18.3867 100.847 18.84C100.393 19.2933 100.167 20.08 100.167 21.2V27H97.8867V15.98H100.167V17.58ZM115.663 21.22C115.663 21.6333 115.636 22.0067 115.583 22.34H107.163C107.229 23.22 107.556 23.9267 108.143 24.46C108.729 24.9933 109.449 25.26 110.303 25.26C111.529 25.26 112.396 24.7467 112.903 23.72H115.362C115.029 24.7333 114.423 25.5667 113.543 26.22C112.676 26.86 111.596 27.18 110.303 27.18C109.249 27.18 108.303 26.9467 107.463 26.48C106.636 26 105.983 25.3333 105.503 24.48C105.036 23.6133 104.803 22.6133 104.803 21.48C104.803 20.3467 105.029 19.3533 105.483 18.5C105.949 17.6333 106.596 16.9667 107.423 16.5C108.263 16.0333 109.223 15.8 110.303 15.8C111.343 15.8 112.269 16.0267 113.083 16.48C113.896 16.9333 114.529 17.5733 114.983 18.4C115.436 19.2133 115.663 20.1533 115.663 21.22ZM113.283 20.5C113.269 19.66 112.969 18.9867 112.383 18.48C111.796 17.9733 111.069 17.72 110.203 17.72C109.416 17.72 108.743 17.9733 108.183 18.48C107.623 18.9733 107.289 19.6467 107.183 20.5H113.283Z" fill="white"/>
<defs>
<linearGradient id="paint0_linear_2_66" x1="34" y1="-1.84178e-06" x2="7" y2="40" gradientUnits="userSpaceOnUse">
<stop/>
<stop offset="1" stop-color="#5E546D"/>
</linearGradient>
</defs>
</svg>
